# xmcd
#
# Track frame offsets:
# 150
# 3773
# 20788
# 35953
# 54346
# 72835
# 85965
# 98395
# 114764
# 134036
# 147374
# 160292
# 174479
# 191108
# 204266
# 216877
# 232717
# 251601
# 262899
# 275845
# 287894
# 315812
#
# Disc length: 4385 seconds
#
#
# Revision: 0
# Processed by: cddbd v1.5.1PL2 Copyright (c) Steve Scherf et al.
# Submitted via: FreeRIP 2.945 
#
DISCID=35111f16
DTITLE=tremendões vol2 ao vivo - máquina quente do forró
DYEAR=2006
DGENRE=forró - sertanejo
TTITLE0=abertura
TTITLE1=imortal
TTITLE2=te amei
TTITLE3=aguenta nóis
TTITLE4=louca paixão
TTITLE5=solde primavera
TTITLE6=balanço da sanfona
TTITLE7=desce que mexe
TTITLE8=teu silêncio
TTITLE9=por que choras?
TTITLE10=será
TTITLE11=só falta voçê
TTITLE12=amor de novela
TTITLE13=depois da seis
TTITLE14=simancol
TTITLE15=a lua me traiu
TTITLE16=força do amor
TTITLE17=passarinho
TTITLE18=retrato na estante
TTITLE19=doidinha pra te amar
TTITLE20=pout-porri
TTITLE21=pagode em brasilia
EXTD=ripado por pelers@gmail.com
EXTT0=
EXTT1=
EXTT2=
EXTT3=
EXTT4=
EXTT5=
EXTT6=
EXTT7=
EXTT8=
EXTT9=
EXTT10=
EXTT11=
EXTT12=
EXTT13=
EXTT14=
EXTT15=
EXTT16=
EXTT17=
EXTT18=
EXTT19=
EXTT20=
EXTT21=
PLAYORDER=
